<svg xmlns="http://www.w3.org/2000/svg" width="84" height="107.066" viewBox="0 0 84 107.066">
  <g id="Group_13222" data-name="Group 13222" transform="translate(-167 -930)">
    <circle id="Ellipse_14" data-name="Ellipse 14" cx="35" cy="35" r="35" transform="translate(174 937)" fill="#0372e2"/>
    <g id="Ellipse_14-2" data-name="Ellipse 14" transform="translate(167 930)" fill="none" stroke="#0372e2" stroke-width="1">
      <circle cx="42" cy="42" r="42" stroke="none"/>
      <circle cx="42" cy="42" r="41.5" fill="none"/>
    </g>
    <path id="Icon_open-arrow-bottom" data-name="Icon open-arrow-bottom" d="M4.5,0V17.621H0l5.429,6.446,5.821-6.446H6.75V0Z" transform="translate(203.375 1013)" fill="#0372e2"/>
    <path id="Path_4477" data-name="Path 4477" d="M36.094-28.437H3.281A3.282,3.282,0,0,0,0-25.156V-1.094A3.282,3.282,0,0,0,3.281,2.188H36.094a3.282,3.282,0,0,0,3.281-3.281V-25.156A3.282,3.282,0,0,0,36.094-28.437Zm0,27.344H3.281V-25.156H36.094ZM14.219-13.125A4.379,4.379,0,0,0,18.594-17.5a4.379,4.379,0,0,0-4.375-4.375A4.379,4.379,0,0,0,9.844-17.5,4.379,4.379,0,0,0,14.219-13.125ZM8.094-4.375h12.25a1.434,1.434,0,0,0,1.531-1.313V-7c0-2.174-2.058-3.937-4.594-3.937-.738,0-1.278.547-3.062.547-1.839,0-2.283-.547-3.062-.547C8.62-10.937,6.563-9.174,6.563-7v1.313A1.434,1.434,0,0,0,8.094-4.375ZM24.609-8.75h7.656a.548.548,0,0,0,.547-.547v-1.094a.548.548,0,0,0-.547-.547H24.609a.548.548,0,0,0-.547.547V-9.3A.548.548,0,0,0,24.609-8.75Zm0-4.375h7.656a.548.548,0,0,0,.547-.547v-1.094a.548.548,0,0,0-.547-.547H24.609a.548.548,0,0,0-.547.547v1.094A.548.548,0,0,0,24.609-13.125Zm0-4.375h7.656a.548.548,0,0,0,.547-.547v-1.094a.548.548,0,0,0-.547-.547H24.609a.548.548,0,0,0-.547.547v1.094A.548.548,0,0,0,24.609-17.5Z" transform="translate(190 986)" fill="#fff"/>
  </g>
</svg>
