<svg xmlns="http://www.w3.org/2000/svg" width="101.383" height="101.383" viewBox="0 0 101.383 101.383">
  <path id="Icon_awesome-check-circle" data-name="Icon awesome-check-circle" d="M101.945,51.254A50.691,50.691,0,1,1,51.254.563,50.691,50.691,0,0,1,101.945,51.254ZM45.39,78.095,83,40.485a3.27,3.27,0,0,0,0-4.625l-4.625-4.625a3.27,3.27,0,0,0-4.625,0L43.078,61.907l-14.32-14.32a3.271,3.271,0,0,0-4.625,0l-4.625,4.625a3.27,3.27,0,0,0,0,4.625L40.765,78.094a3.271,3.271,0,0,0,4.625,0Z" transform="translate(-0.563 -0.563)" fill="#0372e2"/>
</svg>
