<svg xmlns="http://www.w3.org/2000/svg" width="38" height="38" viewBox="0 0 38 38">
  <path id="Icon_awesome-check-circle" data-name="Icon awesome-check-circle" d="M38.563,19.563a19,19,0,1,1-19-19A19,19,0,0,1,38.563,19.563Zm-21.2,10.06,14.1-14.1a1.226,1.226,0,0,0,0-1.734l-1.734-1.734a1.226,1.226,0,0,0-1.734,0l-11.5,11.5-5.367-5.367a1.226,1.226,0,0,0-1.734,0L7.663,19.922a1.226,1.226,0,0,0,0,1.734l7.968,7.968a1.226,1.226,0,0,0,1.734,0Z" transform="translate(-0.563 -0.563)" fill="#0372e2"/>
</svg>
