<svg xmlns="http://www.w3.org/2000/svg" width="84" height="107.066" viewBox="0 0 84 107.066">
  <g id="Group_13225" data-name="Group 13225" transform="translate(-929 -930)">
    <g id="Group_13070" data-name="Group 13070" transform="translate(787 -24)">
      <g id="Group_13041" data-name="Group 13041" transform="translate(-592 52)">
        <circle id="Ellipse_14" data-name="Ellipse 14" cx="35" cy="35" r="35" transform="translate(741 909)" fill="#f5f5f5"/>
      </g>
      <g id="Group_13069" data-name="Group 13069" transform="translate(-598.601 45.399)">
        <g id="Ellipse_14-2" data-name="Ellipse 14" transform="translate(740.601 908.601)" fill="none" stroke="#f5f5f5" stroke-width="1">
          <circle cx="42" cy="42" r="42" stroke="none"/>
          <circle cx="42" cy="42" r="41.5" fill="none"/>
        </g>
      </g>
    </g>
    <path id="Icon_open-arrow-bottom" data-name="Icon open-arrow-bottom" d="M4.5,0V17.621H0l5.429,6.446,5.821-6.446H6.75V0Z" transform="translate(965.375 1013)" fill="#f5f5f5"/>
    <path id="Path_4479" data-name="Path 4479" d="M31.719-26.25H3.281A3.281,3.281,0,0,0,0-22.969V-3.281A3.281,3.281,0,0,0,3.281,0H31.719A3.281,3.281,0,0,0,35-3.281V-22.969A3.281,3.281,0,0,0,31.719-26.25Zm0,3.281v2.789c-1.533,1.248-3.976,3.189-9.2,7.28-1.151.906-3.432,3.081-5.018,3.056-1.586.026-3.868-2.151-5.018-3.056-5.223-4.09-7.667-6.031-9.2-7.28v-2.789ZM3.281-3.281V-15.969c1.566,1.248,3.788,3,7.174,5.65,1.494,1.176,4.111,3.773,7.045,3.757,2.92.016,5.5-2.543,7.045-3.756,3.386-2.651,5.608-4.4,7.174-5.65V-3.281Z" transform="translate(954 986)" fill="#0372e2"/>
  </g>
</svg>
