<svg xmlns="http://www.w3.org/2000/svg" width="78.342" height="78.526" viewBox="0 0 78.342 78.526">
  <g id="Group_12987" data-name="Group 12987" transform="translate(-904.547 -1039.491)">
    <g id="Group_12986" data-name="Group 12986" transform="translate(940.033 1039.491) rotate(39)">
      <path id="Path_4432" data-name="Path 4432" d="M39.61,7.525c-.252.28-.4.439-.548.609q-4.027,4.74-8.049,9.486a1.712,1.712,0,0,1-1.99.652,1.975,1.975,0,0,1-1.244-1.63,2.413,2.413,0,0,1,.589-2.085q1.36-1.607,2.724-3.21Q35.483,6.174,39.875,1C41.01-.334,41.948-.334,43.083,1Q48.8,7.731,54.508,14.463a2.328,2.328,0,0,1-.781,3.781,1.72,1.72,0,0,1-1.865-.732q-3.982-4.7-7.971-9.385c-.144-.169-.3-.327-.51-.562-.045.946-.085,1.791-.124,2.635a53.352,53.352,0,0,1-6.705,24.044Q27.746,49.89,12.321,54.806a33.371,33.371,0,0,1-10.39,1.582,2.18,2.18,0,0,1-.013-4.33A34.174,34.174,0,0,0,26.142,41.564c6.749-6.7,11-15.2,12.762-25.4A48.533,48.533,0,0,0,39.61,7.525Z" transform="translate(0 0)"/>
    </g>
  </g>
</svg>
