<svg xmlns="http://www.w3.org/2000/svg" width="84" height="107.066" viewBox="0 0 84 107.066">
  <g id="Group_13224" data-name="Group 13224" transform="translate(-675 -930)">
    <g id="Group_13070" data-name="Group 13070" transform="translate(533 -24)">
      <g id="Group_13041" data-name="Group 13041" transform="translate(-592 52)">
        <circle id="Ellipse_14" data-name="Ellipse 14" cx="35" cy="35" r="35" transform="translate(741 909)" fill="#0372e2"/>
      </g>
      <g id="Group_13069" data-name="Group 13069" transform="translate(-598.601 45.399)">
        <g id="Ellipse_14-2" data-name="Ellipse 14" transform="translate(740.601 908.601)" fill="none" stroke="#0372e2" stroke-width="1">
          <circle cx="42" cy="42" r="42" stroke="none"/>
          <circle cx="42" cy="42" r="41.5" fill="none"/>
        </g>
      </g>
    </g>
    <path id="Icon_open-arrow-bottom" data-name="Icon open-arrow-bottom" d="M4.5,0V17.621H0l5.429,6.446,5.821-6.446H6.75V0Z" transform="translate(711.375 1013)" fill="#0372e2"/>
    <path id="Path_4480" data-name="Path 4480" d="M35-18.594a4.367,4.367,0,0,1-.581,2.188,3.952,3.952,0,0,1-1.606,1.572v7.725a10.877,10.877,0,0,1-1.606,5.776,11.66,11.66,0,0,1-4.375,4.17,12.183,12.183,0,0,1-6.016,1.538,12.208,12.208,0,0,1-5.981-1.5A11.922,11.922,0,0,1,10.459-1.2,10.6,10.6,0,0,1,8.75-6.768,10.563,10.563,0,0,1,2.5-10.562,10.638,10.638,0,0,1,0-17.5V-28.1a1.587,1.587,0,0,1,.376-1.06,1.736,1.736,0,0,1,.923-.581l4.307-.889a1.79,1.79,0,0,1,1.23.308,1.59,1.59,0,0,1,.684.991l.273,1.094A1.48,1.48,0,0,1,7.52-27a1.725,1.725,0,0,1-1.025.684l-2.119.41V-17.5a6.273,6.273,0,0,0,1.948,4.648,6.4,6.4,0,0,0,4.648,1.914,6.234,6.234,0,0,0,4.614-1.948A6.442,6.442,0,0,0,17.5-17.568v-8.34l-2.119-.41A1.725,1.725,0,0,1,14.355-27a1.48,1.48,0,0,1-.273-1.23l.273-1.094a1.59,1.59,0,0,1,.684-.991,1.79,1.79,0,0,1,1.23-.308l4.307.889a1.736,1.736,0,0,1,.923.581,1.587,1.587,0,0,1,.376,1.06v10.6a10.505,10.505,0,0,1-2.5,6.9,10.961,10.961,0,0,1-6.255,3.828,6.65,6.65,0,0,0,2.358,4.785A7.689,7.689,0,0,0,20.781,0a7.95,7.95,0,0,0,3.828-.957,7.337,7.337,0,0,0,2.8-2.6,6.583,6.583,0,0,0,1.025-3.555v-7.725a3.9,3.9,0,0,1-1.606-1.606,4.557,4.557,0,0,1-.581-2.222,4.466,4.466,0,0,1,1.3-3.042,4.075,4.075,0,0,1,3.042-1.265A4.3,4.3,0,0,1,33.7-21.7,4.171,4.171,0,0,1,35-18.594Zm-4.375-1.094a1.065,1.065,0,0,0-.786.308,1.065,1.065,0,0,0-.308.786,1.065,1.065,0,0,0,.308.786,1.065,1.065,0,0,0,.786.308,1.065,1.065,0,0,0,.786-.308,1.065,1.065,0,0,0,.308-.786,1.065,1.065,0,0,0-.308-.786A1.065,1.065,0,0,0,30.625-19.687Z" transform="translate(700 985)" fill="#fff"/>
  </g>
</svg>
