<svg xmlns="http://www.w3.org/2000/svg" width="54" height="54" viewBox="0 0 54 54">
  <g id="Group_13235" data-name="Group 13235" transform="translate(-772 -1615)">
    <circle id="Ellipse_21" data-name="Ellipse 21" cx="22" cy="22" r="22" transform="translate(777 1620)" fill="#0372e2"/>
    <g id="Ellipse_20" data-name="Ellipse 20" transform="translate(772 1615)" fill="none" stroke="#0372e2" stroke-width="1">
      <circle cx="27" cy="27" r="27" stroke="none"/>
      <circle cx="27" cy="27" r="26.5" fill="none"/>
    </g>
    <path id="Path_4486" data-name="Path 4486" d="M10.063-14.016a1.04,1.04,0,0,0,.314.764,1.04,1.04,0,0,0,.764.314H17.25V1.8a1.04,1.04,0,0,1-.314.764,1.04,1.04,0,0,1-.764.314H1.078a1.04,1.04,0,0,1-.764-.314A1.04,1.04,0,0,1,0,1.8V-19.047a1.04,1.04,0,0,1,.314-.764,1.04,1.04,0,0,1,.764-.314h8.984Zm2.875,10.6v-.359a.52.52,0,0,0-.157-.382.52.52,0,0,0-.382-.157H4.852a.52.52,0,0,0-.382.157.52.52,0,0,0-.157.382v.359a.52.52,0,0,0,.157.382.52.52,0,0,0,.382.157H12.4a.52.52,0,0,0,.382-.157A.52.52,0,0,0,12.938-3.414Zm0-2.875v-.359a.52.52,0,0,0-.157-.382.52.52,0,0,0-.382-.157H4.852a.52.52,0,0,0-.382.157.52.52,0,0,0-.157.382v.359a.52.52,0,0,0,.157.382.52.52,0,0,0,.382.157H12.4a.52.52,0,0,0,.382-.157A.52.52,0,0,0,12.938-6.289Zm0-3.234a.52.52,0,0,0-.157-.382.52.52,0,0,0-.382-.157H4.852a.52.52,0,0,0-.382.157.52.52,0,0,0-.157.382v.359a.52.52,0,0,0,.157.382.52.52,0,0,0,.382.157H12.4a.52.52,0,0,0,.382-.157.52.52,0,0,0,.157-.382Zm4.313-5.121a1.04,1.04,0,0,0-.314-.764l-4.4-4.4a1.04,1.04,0,0,0-.764-.314H11.5v5.75h5.75Z" transform="translate(791 1651)" fill="#fff"/>
  </g>
</svg>
