<svg xmlns="http://www.w3.org/2000/svg" width="222.329" height="222.328" viewBox="0 0 222.329 222.328">
  <g id="Group_6823" data-name="Group 6823" transform="translate(536 0.333)">
    <g id="Group_6817" data-name="Group 6817" transform="translate(-536 -0.333)">
      <g id="Group_6816" data-name="Group 6816">
        <path id="Path_4428" data-name="Path 4428" d="M-424.836-.333A111.164,111.164,0,0,0-536,110.831,111.164,111.164,0,0,0-424.836,222,111.164,111.164,0,0,0-313.671,110.831,111.164,111.164,0,0,0-424.836-.333Zm-2.758,198.054h-.166a16.115,16.115,0,0,1-15.971-16.174V40.529A16.115,16.115,0,0,1-427.76,24.355h.166c46.617,0,84.408,38.809,84.408,86.683S-380.977,197.721-427.594,197.721Z" transform="translate(536 0.333)" fill="#fff"/>
      </g>
    </g>
    <g id="Group_6818" data-name="Group 6818" transform="translate(-444.145 56.376)">
      <rect id="Rectangle_4920" data-name="Rectangle 4920" width="86.89" height="2.159" fill="#fff"/>
    </g>
    <g id="Group_6819" data-name="Group 6819" transform="translate(-444.145 92.61)">
      <rect id="Rectangle_4921" data-name="Rectangle 4921" width="101.786" height="2.513" fill="#fff"/>
    </g>
    <g id="Group_6820" data-name="Group 6820" transform="translate(-444.145 127.371)">
      <rect id="Rectangle_4922" data-name="Rectangle 4922" width="100.958" height="2.503" fill="#fff"/>
    </g>
    <g id="Group_6821" data-name="Group 6821" transform="translate(-444.145 162.113)">
      <rect id="Rectangle_4923" data-name="Rectangle 4923" width="86.89" height="2.531" fill="#fff"/>
    </g>
    <g id="Group_6822" data-name="Group 6822" transform="translate(-405.512 29.502)">
      <path id="Path_4429" data-name="Path 4429" d="M-376.139,203.059l-2.176-1.549c30.5-42.893,8.972-164.094,8.751-165.313l2.629-.477a570.508,570.508,0,0,1,7.225,66.895C-357.5,150.828-363.028,184.623-376.139,203.059Z" transform="translate(378.315 -35.72)" fill="#fff"/>
    </g>
  </g>
</svg>
