<svg xmlns="http://www.w3.org/2000/svg" width="84" height="107.066" viewBox="0 0 84 107.066">
  <g id="Group_13226" data-name="Group 13226" transform="translate(-1183 -930)">
    <circle id="Ellipse_14" data-name="Ellipse 14" cx="35" cy="35" r="35" transform="translate(1190 937)" fill="#0372e2"/>
    <g id="Ellipse_14-2" data-name="Ellipse 14" transform="translate(1183 930)" fill="none" stroke="#0372e2" stroke-width="1">
      <circle cx="42" cy="42" r="42" stroke="none"/>
      <circle cx="42" cy="42" r="41.5" fill="none"/>
    </g>
    <path id="Icon_open-arrow-bottom" data-name="Icon open-arrow-bottom" d="M4.5,0V17.621H0l5.429,6.446,5.821-6.446H6.75V0Z" transform="translate(1219.375 1013)" fill="#0372e2"/>
    <path id="Path_4478" data-name="Path 4478" d="M9.844-16.406a2.185,2.185,0,0,0-2.187,2.188,2.185,2.185,0,0,0,2.188,2.188,2.185,2.185,0,0,0,2.188-2.187A2.185,2.185,0,0,0,9.844-16.406Zm7.656,0a2.185,2.185,0,0,0-2.187,2.188A2.185,2.185,0,0,0,17.5-12.031a2.185,2.185,0,0,0,2.188-2.187A2.185,2.185,0,0,0,17.5-16.406Zm7.656,0a2.185,2.185,0,0,0-2.187,2.188,2.185,2.185,0,0,0,2.188,2.188,2.185,2.185,0,0,0,2.188-2.187A2.185,2.185,0,0,0,25.156-16.406ZM17.5-28.437C7.834-28.437,0-22.073,0-14.219A12.566,12.566,0,0,0,3.616-5.585a17.348,17.348,0,0,1-3.172,5,1.641,1.641,0,0,0,1.2,2.769A16.587,16.587,0,0,0,11.149-.978,21.114,21.114,0,0,0,17.5,0C27.166,0,35-6.364,35-14.219S27.166-28.437,17.5-28.437Zm0,25.156a17.764,17.764,0,0,1-5.359-.827L10.589-4.6l-1.333.943A14.7,14.7,0,0,1,5.325-1.675a17.146,17.146,0,0,0,1.36-2.748L7.41-6.344,6-7.834a9.4,9.4,0,0,1-2.721-6.385c0-6.029,6.378-10.937,14.219-10.937s14.219,4.908,14.219,10.938S25.341-3.281,17.5-3.281Z" transform="translate(1208 986)" fill="#fff"/>
  </g>
</svg>
