<svg xmlns="http://www.w3.org/2000/svg" width="73.453" height="72.794" viewBox="0 0 73.453 72.794">
  <g id="Group_12986" data-name="Group 12986" transform="matrix(0.391, -0.921, 0.921, 0.391, 0, 50.76)">
    <path id="Path_4432" data-name="Path 4432" d="M-371.324,631.074c-.252-.28-.4-.439-.548-.609q-4.027-4.74-8.049-9.486a1.712,1.712,0,0,0-1.99-.652,1.975,1.975,0,0,0-1.244,1.63,2.413,2.413,0,0,0,.589,2.085q1.36,1.607,2.724,3.21,4.392,5.173,8.784,10.345c1.135,1.336,2.073,1.335,3.209,0q5.714-6.729,11.425-13.46a2.328,2.328,0,0,0-.781-3.781,1.72,1.72,0,0,0-1.865.732q-3.982,4.7-7.971,9.385c-.144.169-.3.327-.51.562-.045-.946-.085-1.791-.124-2.635a53.352,53.352,0,0,0-6.705-24.044q-8.805-15.646-24.23-20.562A33.371,33.371,0,0,0-409,582.211a2,2,0,0,0-1.931,2.157,2,2,0,0,0,1.918,2.173,34.173,34.173,0,0,1,24.224,10.494c6.749,6.7,11,15.2,12.762,25.4A48.533,48.533,0,0,1-371.324,631.074Z" transform="translate(410.933 -582.21)"/>
  </g>
</svg>
