<svg xmlns="http://www.w3.org/2000/svg" width="54" height="54" viewBox="0 0 54 54">
  <g id="Group_13237" data-name="Group 13237" transform="translate(-772 -1458)">
    <circle id="Ellipse_16" data-name="Ellipse 16" cx="22" cy="22" r="22" transform="translate(777 1463)" fill="#0372e2"/>
    <g id="Ellipse_17" data-name="Ellipse 17" transform="translate(772 1458)" fill="none" stroke="#0372e2" stroke-width="1">
      <circle cx="27" cy="27" r="27" stroke="none"/>
      <circle cx="27" cy="27" r="26.5" fill="none"/>
    </g>
    <path id="Path_4485" data-name="Path 4485" d="M12.5-15a4.034,4.034,0,0,0-2.07.547,4.058,4.058,0,0,0-1.484,1.484A4.034,4.034,0,0,0,8.4-10.9a4.034,4.034,0,0,0,.547,2.07A4.058,4.058,0,0,0,10.43-7.344,4.034,4.034,0,0,0,12.5-6.8a4.034,4.034,0,0,0,2.07-.547,4.058,4.058,0,0,0,1.484-1.484A4.034,4.034,0,0,0,16.6-10.9a4.034,4.034,0,0,0-.547-2.07,4.058,4.058,0,0,0-1.484-1.484A4.034,4.034,0,0,0,12.5-15Zm4.414,8.477a2.7,2.7,0,0,1,1.563,1,2.775,2.775,0,0,1,.586,1.738v2.383a1.356,1.356,0,0,1-.41,1,1.356,1.356,0,0,1-1,.41H7.344a1.356,1.356,0,0,1-1-.41,1.356,1.356,0,0,1-.41-1V-3.789a2.775,2.775,0,0,1,.586-1.738,2.7,2.7,0,0,1,1.563-1l1.563-.391a4.877,4.877,0,0,0,2.7.938,4.55,4.55,0,0,0,3.008-.937Zm3.711.742a2.635,2.635,0,0,1-1.934-.8,2.635,2.635,0,0,1-.8-1.934,2.635,2.635,0,0,1,.8-1.934,2.635,2.635,0,0,1,1.934-.8,2.635,2.635,0,0,1,1.934.8,2.635,2.635,0,0,1,.8,1.934,2.635,2.635,0,0,1-.8,1.934A2.635,2.635,0,0,1,20.625-5.781Zm-16.25,0a2.635,2.635,0,0,1-1.934-.8,2.635,2.635,0,0,1-.8-1.934,2.635,2.635,0,0,1,.8-1.934,2.635,2.635,0,0,1,1.934-.8,2.635,2.635,0,0,1,1.934.8,2.635,2.635,0,0,1,.8,1.934,2.635,2.635,0,0,1-.8,1.934A2.635,2.635,0,0,1,4.375-5.781Zm.938,4.375v.156H.938a.9.9,0,0,1-.664-.273A.9.9,0,0,1,0-2.187v-1.6A1.813,1.813,0,0,1,.391-4.922a1.8,1.8,0,0,1,1.016-.664l1.055-.273a3.294,3.294,0,0,0,1.6.605A3.314,3.314,0,0,0,5.82-5.547a3.281,3.281,0,0,0-.508,1.758Zm18.281-4.18a1.8,1.8,0,0,1,1.016.664A1.813,1.813,0,0,1,25-3.789v1.6a.9.9,0,0,1-.273.664.9.9,0,0,1-.664.273H19.688V-3.789a3.482,3.482,0,0,0-.508-1.8,3.279,3.279,0,0,0,1.641.352,3.018,3.018,0,0,0,1.719-.625Z" transform="translate(787 1493)" fill="#fff"/>
  </g>
</svg>
