<svg xmlns="http://www.w3.org/2000/svg" width="54" height="54" viewBox="0 0 54 54">
  <g id="Group_13236" data-name="Group 13236" transform="translate(-772 -1540)">
    <circle id="Ellipse_19" data-name="Ellipse 19" cx="22" cy="22" r="22" transform="translate(777 1545)" fill="#0372e2"/>
    <g id="Ellipse_18" data-name="Ellipse 18" transform="translate(772 1540)" fill="none" stroke="#0372e2" stroke-width="1">
      <circle cx="27" cy="27" r="27" stroke="none"/>
      <circle cx="27" cy="27" r="26.5" fill="none"/>
    </g>
    <g id="Group_13233" data-name="Group 13233" transform="translate(575 1020.381)">
      <path id="Path_4482" data-name="Path 4482" d="M214,551.213c.062-.272.113-.547.188-.815a5.134,5.134,0,0,1,4.968-3.778c2.756,0,5.511-.007,8.267.007a11.705,11.705,0,0,1,1.312.144l-.355,1.9a8.35,8.35,0,0,0-.976.106,3.84,3.84,0,0,0-3.073,3.591,4.2,4.2,0,0,0,.893,3.165c.1.115.2.225.339.376h-.294c-3.432,0-6.865-.006-10.3.006a.92.92,0,0,1-.972-.586Z" fill="#fff"/>
      <path id="Path_4483" data-name="Path 4483" d="M231.992,559a.671.671,0,0,0-.106-.049,1.818,1.818,0,0,1-1.385-1.786c-.007-.749,0-1.5,0-2.283h-.268c-.652,0-1.305,0-1.957,0a1.813,1.813,0,0,1-1.891-1.905,4.35,4.35,0,0,1,.022-.723,1.809,1.809,0,0,1,1.8-1.516c.668-.007,1.337,0,2.006,0h.289c0-.293,0-.564,0-.835a17.841,17.841,0,0,1,.051-1.808,1.74,1.74,0,0,1,1.719-1.472,4.716,4.716,0,0,1,.914.038,1.787,1.787,0,0,1,1.459,1.792c.007.748,0,1.5,0,2.285h.265c.653,0,1.3,0,1.958,0a1.81,1.81,0,0,1,1.893,1.9,4.116,4.116,0,0,1-.029.746,1.8,1.8,0,0,1-1.813,1.5c-.661.006-1.322,0-1.982,0h-.292c0,.2,0,.384,0,.567-.008.667.031,1.341-.041,2a1.7,1.7,0,0,1-1.345,1.5.771.771,0,0,0-.106.049Z" fill="#fff"/>
      <path id="Path_4484" data-name="Path 4484" d="M223.277,544.558a5.16,5.16,0,1,1,5.176-5.129A5.173,5.173,0,0,1,223.277,544.558Z" fill="#fff"/>
    </g>
  </g>
</svg>
